<?xml version="1.0" standalone="no"?><!DOCTYPE svg PUBLIC "-//W3C//DTD SVG 1.1//EN" "http://www.w3.org/Graphics/SVG/1.1/DTD/svg11.dtd"><svg t="1646320029438" class="icon" viewBox="0 0 1024 1024" version="1.1" xmlns="http://www.w3.org/2000/svg" p-id="1367" xmlns:xlink="http://www.w3.org/1999/xlink" width="200" height="200"><defs><style type="text/css"></style></defs><path d="M827.733333 98.133333c17.066667-19.2 44.8-25.6 70.4-17.066666 25.6 10.666667 40.533333 34.133333 40.533334 59.733333V725.333333c0 66.133333-25.6 130.133333-70.4 177.066667l-2.133334 2.133333C817.066667 953.6 753.066667 981.333333 682.666667 981.333333H341.333333c-70.4 0-136.533333-27.733333-185.6-78.933333C110.933333 855.466667 85.333333 791.466667 85.333333 725.333333V140.8c0-27.733333 17.066667-51.2 40.533334-59.733333 25.6-8.533333 53.333333-2.133333 70.4 17.066666l132.266666 147.2 149.333334-183.466666c17.066667-19.2 49.066667-19.2 66.133333 0l149.333333 183.466666 134.4-147.2zM853.333333 725.333333V196.266667l-125.866666 140.8-157.866667 174.933333 264.533333 292.266667c12.8-23.466667 19.2-51.2 19.2-78.933334z m-170.666666 170.666667c34.133333 0 66.133333-10.666667 91.733333-27.733333L298.666667 337.066667 170.666667 196.266667V725.333333c0 44.8 17.066667 85.333333 46.933333 117.333334 34.133333 34.133333 76.8 53.333333 123.733333 53.333333h341.333334zM512 155.733333l-125.866667 153.6L512 448l125.866667-138.666667L512 155.733333z" fill="#41b883" p-id="1368"></path></svg>